<svg class="icon" viewBox="0 0 1024 1024" xmlns="http://www.w3.org/2000/svg" width="128" height="128"><path d="M691.712 666.931a5.12 5.12 0 0 0-7.526 0l-13.466 13.466-13.517-13.466a5.12 5.12 0 0 0-7.526 7.527l13.465 13.465-13.465 13.517a5.12 5.12 0 1 0 7.526 7.526l13.517-13.465 13.466 13.465a5.12 5.12 0 0 0 7.526-7.526l-13.466-13.517 13.466-13.465a5.12 5.12 0 0 0 0-7.527zM293.069 529.664V270.336H239.41L77.875 526.592v46.848h174.49v71.322h40.96V573.44h37.99v-43.725zm-40.96-1.946H121.856l130.509-212.787zm650.957 1.946V270.336h-53.658L687.821 526.592v46.848h174.49v71.322h40.96V573.44h37.99v-43.725zm-40.96-1.946H731.853L862.31 314.931zm-402.79 140.186c0-11.93-6.094-20.48-17.92-20.48a22.682 22.682 0 0 0 1.28 45.158 27.7 27.7 0 0 0 15.052-4.761l-3.84-6.861a18.074 18.074 0 0 1-9.677 2.97 11.315 11.315 0 0 1-11.93-10.752h26.522a21.709 21.709 0 0 0 .512-5.274zm-27.137-2.304a9.677 9.677 0 0 1 9.37-9.523c5.53 0 8.14 3.686 8.14 9.523zm47.667-9.626h-.307l-.768-7.577h-9.216V691.2h11.213v-25.6a11.264 11.264 0 0 1 9.933-8.448 13.26 13.26 0 0 1 4.454.666l1.997-9.728a11.571 11.571 0 0 0-5.12-.922 14.694 14.694 0 0 0-12.237 8.602zm34.407 0h-.307l-.768-7.577h-9.216V691.2h11.264v-25.6c2.457-6.246 6.502-8.448 9.881-8.448a13.056 13.056 0 0 1 4.455.666l1.996-9.728a11.469 11.469 0 0 0-5.12-.922 14.694 14.694 0 0 0-12.236 8.602zm41.165-8.652a22.682 22.682 0 1 0 20.48 22.681 20.992 20.992 0 0 0-20.48-22.681zm0 35.84c-5.837 0-9.114-5.12-9.114-13.261s3.277-13.466 9.114-13.466 9.164 5.12 9.164 13.466-3.328 13.363-9.164 13.363zm41.318-27.188h-.307l-.768-7.577h-9.216V691.2h11.213v-25.6a11.264 11.264 0 0 1 9.932-8.448 13.26 13.26 0 0 1 4.455.666l1.997-9.728a11.571 11.571 0 0 0-5.12-.922 14.694 14.694 0 0 0-12.237 8.602z" fill="#ccc"/><path d="M676.813 645.12V519.424a5.12 5.12 0 0 0-5.12-5.12h-37.837a477.9 477.9 0 0 0 3.02-55.45q0-193.536-126.975-193.536T383.59 460.34a472.32 472.32 0 0 0 2.764 53.811h-27.699a5.12 5.12 0 0 0-5.12 5.12v181.197a77.773 77.773 0 0 0-104.448 73.011 5.12 5.12 0 0 0 10.65 0 67.072 67.072 0 0 1 96.307-60.364 3.686 3.686 0 0 0 1.024.46 66.56 66.56 0 0 1 34.918 44.39 5.12 5.12 0 0 0 6.451 3.943 5.12 5.12 0 0 0 1.997-.921 66.56 66.56 0 0 1 40.243-13.466 67.123 67.123 0 0 1 67.072 67.072 5.12 5.12 0 0 0 10.65 0 77.21 77.21 0 0 0-10.803-39.373h163.84a5.12 5.12 0 0 0 5.12-5.12v-38.195a5.683 5.683 0 0 0 0-.973 43.315 43.315 0 0 0 0-85.76zm-239.77-173.005q0-91.085 16.538-128t57.497-36.915q40.141 0 56.32 33.178T583.68 455.68q0 32.717-2.56 58.214H438.63q-1.638-18.841-1.587-41.779zm229.171 52.634v58.931H365.466a4.71 4.71 0 0 0-1.434 0v-58.931zm0 239.872H500.02a77.62 77.62 0 0 0-99.891-16.23 77.312 77.312 0 0 0-36.096-42.906V593.92a6.912 6.912 0 0 0 1.434 0h300.748v51.2a43.315 43.315 0 0 0 0 86.17 3.942 3.942 0 0 0 0 .768zm4.506-44.032a32.666 32.666 0 1 1 32.614-32.615 32.614 32.614 0 0 1-32.614 32.615z" fill="#ccc"/><path d="M454.4 559.872h178.33a5.12 5.12 0 0 0 0-10.65H454.4a5.12 5.12 0 0 0-5.12 5.12 5.12 5.12 0 0 0 5.12 5.53zm-69.018-5.325a7.475 7.475 0 1 0 14.95 0 7.424 7.424 0 0 0-7.423-7.475 7.526 7.526 0 0 0-7.527 7.475zm28.314 0a7.475 7.475 0 1 0 14.9 0 7.475 7.475 0 1 0-14.9 0z" fill="#ccc"/></svg>