<svg class="icon" viewBox="0 0 1571 1024" xmlns="http://www.w3.org/2000/svg" width="196.375" height="128"><path d="M410.624 280.064h6.656v6.656c0 3.584 3.072 6.656 6.656 6.656 3.584 0 6.656-3.072 6.656-6.656v-6.656h6.656c3.584 0 6.656-3.072 6.656-6.656 0-3.584-3.072-6.656-6.656-6.656h-6.656v-6.656c0-3.584-3.072-6.656-6.656-6.656s-6.656 3.072-6.656 6.656v6.656h-6.656c-3.584 0-6.656 3.072-6.656 6.656 0 3.584 3.072 6.656 6.656 6.656zm-44.032 384c2.048 0 4.096-2.048 3.584-4.096 0-1.536-.512-3.072-2.048-3.584-2.048-1.024-4.608-.512-5.632 1.536-.512.512-.512 1.536-.512 2.048 0 2.048 1.536 4.096 3.584 4.096h1.024zm81.92-458.24c3.072 1.536 6.656.512 8.192-2.048.512-1.024 1.024-2.048 1.024-3.072 0-3.072-3.072-5.632-6.144-5.632s-5.632 2.56-5.632 5.632c-.512 2.048.512 4.096 2.56 5.12zM1548.288.512c-1.024-.512-2.56-.512-3.072.512s-.512 2.048.512 3.072c9.216 6.656 14.336 18.432 13.824 32.768-.512 41.984-44.544 96.256-116.736 144.384-24.064 15.872-39.936 21.504-49.664 22.016 8.704-21.504 11.776-43.52 9.216-63.488-1.024-7.68-3.584-11.776-7.168-12.288-7.68-1.024-14.848 12.8-17.408 18.432-7.68 16.384-13.824 45.056 0 56.832 2.56 2.048 5.632 3.584 9.216 4.096-15.872 35.328-46.592 68.608-91.648 86.016-1.024.512-2.048 1.536-1.536 2.56s1.536 2.048 2.56 1.536h.512c46.08-17.92 78.336-52.736 94.208-89.6h.512c12.8 0 30.72-7.68 53.76-23.04 105.984-70.656 118.272-126.976 118.272-147.968.512-15.872-5.12-28.672-15.36-35.84zm-159.744 202.24c-3.584-.512-6.144-2.048-8.192-3.584-10.24-8.704-7.168-33.28 1.536-51.712 4.608-10.752 9.728-16.384 12.288-16.384 1.024 0 3.072 2.56 3.584 8.704 3.072 19.456 0 41.472-9.216 62.976zm-1031.68 624.64c2.048 0 4.096-2.048 4.096-4.096s-1.536-4.096-4.096-4.096h-.512c-2.048 0-4.096 2.048-4.096 4.096.512 2.048 2.048 4.096 4.608 4.096zm908.8-141.824c-10.752 0-19.968 8.704-19.968 19.968 0 5.12 2.048 10.24 5.632 13.824 3.584 3.584 8.704 5.632 13.824 5.632 10.752 0 19.968-8.704 19.968-19.968.512-10.752-8.704-19.456-19.456-19.456zm0 26.112c-3.584 0-6.144-3.072-6.144-6.144 0-3.584 3.072-6.144 6.144-6.144 3.584 0 6.144 3.072 6.144 6.144s-2.56 6.144-6.144 6.144zm-1080.32-67.072c-2.048.512-3.072 2.048-2.56 3.584 5.12 26.624-44.544 93.184-79.36 110.592 1.024-2.048 1.536-4.608 2.048-7.168 6.144-29.184-7.168-39.936-11.264-42.496-7.168-4.096-15.36-4.096-21.504 1.024-9.216 7.68-10.752 23.04-4.608 41.472 4.096 11.776 12.288 17.408 23.552 16.384-24.064 33.792-87.552 31.232-88.576 31.232-1.536 0-3.072 1.024-3.072 3.072 0 1.536 1.024 3.072 3.072 3.072h4.096c7.68 0 24.064-.512 41.984-5.12 24.576-6.144 41.984-17.92 50.688-34.304 38.912-13.312 95.232-88.064 89.088-119.296-.512-1.536-2.048-2.56-3.584-2.048zM99.328 750.592c-1.024 4.096-2.048 7.68-3.584 11.264-11.264 3.072-18.432-.512-22.016-11.776-5.632-15.872-4.608-29.184 2.56-34.816 2.048-1.536 4.608-2.56 7.68-2.56 2.56 0 5.12.512 7.168 2.048 6.656 4.096 12.8 15.872 8.192 35.84zm461.824-521.216c12.8 0 23.04-10.24 23.04-23.04s-10.24-23.04-23.04-23.04-23.04 10.24-23.04 23.04 10.24 23.04 23.04 23.04zm0-32.256c5.12 0 9.216 4.096 9.216 9.216s-4.096 9.216-9.216 9.216-9.216-4.608-9.216-9.728c0-4.608 4.096-8.704 9.216-8.704zm545.28 92.672c-3.072-1.536-6.656-.512-8.192 2.048-.512 1.024-1.024 2.048-1.024 3.072 0 3.072 2.56 6.144 5.632 6.144 2.048 0 4.096-1.024 5.632-3.072 1.536-3.072.512-6.656-2.048-8.192zM898.048 142.848c0 2.048 1.536 3.584 3.584 3.584 2.048.512 4.096-1.024 4.608-3.584 0-1.536-.512-3.072-2.048-4.096 0-1.536-.512-3.072-2.048-3.584-2.048-1.024-4.608-.512-5.632 1.536-.512.512-.512 1.536-.512 2.56 0 1.536.512 3.072 2.048 3.584zM1213.44 281.6h-6.656v-6.656c0-3.584-3.072-6.656-6.656-6.656s-7.168 3.072-7.168 6.656v6.656h-6.656c-3.584 0-6.656 3.072-6.656 6.656 0 3.584 3.072 6.656 6.656 6.656h6.656v7.168c0 3.584 3.072 6.656 6.656 6.656 3.584 0 6.656-3.072 6.656-6.656v-6.656h6.656c3.584 0 6.656-3.072 6.656-6.656.512-4.096-2.56-7.168-6.144-7.168zm-67.584-55.808h-6.656v-6.656c0-3.584-3.072-6.656-6.656-6.656-3.584 0-6.656 3.072-6.656 6.656v6.656h-6.656c-3.584 0-6.656 3.072-6.656 6.656s3.072 6.656 6.656 6.656h6.656v6.656c0 3.584 3.072 6.656 6.656 6.656 3.584 0 6.656-3.072 6.656-6.656v-6.656h6.656c3.584 0 6.656-3.072 6.656-6.656 0-3.584-3.072-6.656-6.656-6.656zm74.24-62.464c-10.752 0-19.968 8.704-19.968 19.968 0 10.752 8.704 19.968 19.968 19.968 10.752 0 19.968-8.704 19.968-19.968 0-10.752-8.704-19.968-19.968-19.968zm0 26.624c-3.584 0-6.144-3.072-6.144-6.144 0-3.584 3.072-6.144 6.144-6.144 3.584 0 6.144 3.072 6.144 6.144.512 3.072-2.56 6.144-6.144 6.144zM276.48 556.544c-12.8 0-23.04 10.24-23.04 23.04s10.24 23.04 23.04 23.04 23.04-10.24 23.04-23.04-10.24-23.04-23.04-23.04zm0 32.256c-5.12 0-9.216-4.608-9.216-9.728s4.096-8.704 9.216-9.216c5.12 0 9.216 4.608 9.216 9.728a9.178 9.178 0 0 1-9.216 9.216zm56.832 89.6h-6.656v-6.656c0-3.584-3.072-6.656-6.656-6.656-3.584 0-6.656 3.072-6.656 6.656v6.656h-6.656c-3.584 0-6.656 3.072-6.656 6.656 0 3.584 3.072 6.656 6.656 6.656h6.656v6.656c0 3.584 3.072 6.656 6.656 6.656 3.584 0 6.656-3.072 6.656-6.656v-6.656h6.656c3.584 0 6.656-3.072 6.656-6.656 0-3.072-3.072-6.656-6.656-6.656zm770.048-314.368c0-9.216-7.68-16.896-16.384-16.896h-619.52c-9.216 0-16.384 7.68-16.384 16.896v449.536c0 9.216 7.68 16.896 16.384 16.896h391.168c17.92 27.648 48.64 46.08 84.48 46.08 27.136 0 51.712-10.752 69.632-28.16l53.76 53.76c3.072 3.072 8.192 2.56 11.264-.512 3.072-3.072 3.072-7.68 0-10.752l-54.272-54.272c1.536-2.048 3.072-4.096 4.096-6.144H1088c9.216 0 16.384-7.68 16.384-16.896l-1.024-449.536zm-89.088 455.68c-2.048 3.584-4.608 7.168-7.68 10.752-15.36 18.432-38.912 30.208-64.512 30.208-26.112 0-49.152-11.776-64.512-30.208-2.56-3.584-5.12-6.656-7.68-10.752-7.68-13.312-12.288-28.16-12.288-43.52 0-46.592 37.888-84.48 84.48-84.48s84.48 37.888 84.48 84.48c0 16.384-4.608 31.232-12.288 43.52zm78.848-15.872c0 8.704-7.168 16.384-15.872 16.384h-45.056c6.656-13.312 10.24-28.16 10.24-43.52 0-55.296-45.056-100.352-100.352-100.352s-100.352 45.056-100.352 100.352c0 15.36 3.584 30.208 10.24 43.52H476.672c-8.704 0-15.872-7.168-15.872-16.384V373.76c0-8.704 7.168-16.384 15.872-16.384h600.576c8.704 0 15.872 7.168 15.872 16.384v430.08z" fill="#ccc"/><path d="M545.792 510.976h456.704c8.192 0 14.848-2.048 14.848-5.12s-6.656-5.12-14.848-5.12H545.792c-8.192 0-14.848 2.56-14.848 5.12s6.656 5.12 14.848 5.12zm456.704 50.176H545.792c-8.192 0-14.848 2.56-14.848 5.12 0 3.072 6.656 5.12 14.848 5.12h456.704c8.192 0 14.848-2.048 14.848-5.12s-6.656-5.12-14.848-5.12zm-1.024 64.512H544.768c-8.192 0-14.848 2.56-14.848 5.12 0 3.072 6.656 5.12 14.848 5.12h456.704c8.192 0 14.848-2.048 14.848-5.12s-6.656-5.12-14.848-5.12zm-455.68-173.568h456.704c8.192 0 14.848-2.048 14.848-5.12s-6.656-5.12-14.848-5.12H545.792c-8.192 0-14.848 2.56-14.848 5.12s6.656 5.12 14.848 5.12z" fill="#ccc"/></svg>